Coordinates
version=1
nRows=24
nColumns=24
inDegrees=yes

Units are S.I. units (second, meters, Newtons, ...)
Angles are in degrees.

endheader
time	pelvis_tilt	pelvis_list	pelvis_rotation	pelvis_tx	pelvis_ty	pelvis_tz	hip_flexion_r	hip_adduction_r	hip_rotation_r	knee_angle_r	ankle_angle_r	subtalar_angle_r	mtp_angle_r	hip_flexion_l	hip_adduction_l	hip_rotation_l	knee_angle_l	ankle_angle_l	subtalar_angle_l	mtp_angle_l	lumbar_extension	lumbar_bending	lumbar_rotation
      6.40000000	     53.76866097	      4.47913950	     -4.21151338	      1.28670205	      1.04412436	     -0.28822254	     22.53282110	     -7.91282202	      4.18168076	    -55.05399854	    -23.13687950	      0.00000000	      0.00000000	     17.20579932	    -11.11008286	     -5.69469954	    -62.88328627	    -14.64960014	      0.00000000	      0.00000000	      0.00000000	      0.00000000	      0.00000000
      6.41000000	     53.75414531	      4.50839632	     -4.21617805	      1.28670393	      1.04409459	     -0.28827634	     22.59885129	     -8.12395257	      4.33547906	    -56.52764909	    -23.41008111	      0.00000000	      0.00000000	     17.22805834	    -11.06455115	     -5.70529796	    -62.87809260	    -14.64714776	      0.00000000	      0.00000000	      0.00000000	      0.00000000	      0.00000000
      6.42000000	     53.74207977	      4.54291895	     -4.21271301	      1.28671306	      1.04406525	     -0.28834551	     22.66541114	     -8.34401025	      4.51401597	    -58.04006888	    -23.69376383	      0.00000000	      0.00000000	     17.24986707	    -11.01460373	     -5.71468851	    -62.87478343	    -14.63381497	      0.00000000	      0.00000000	      0.00000000	      0.00000000	      0.00000000
      6.43000000	     53.73073938	      4.58119674	     -4.20291251	      1.28675466	      1.04404891	     -0.28843990	     22.73339474	     -8.57429433	      4.71102965	    -59.58394604	    -23.97847229	      0.00000000	      0.00000000	     17.26920937	    -10.96067206	     -5.72348109	    -62.87172566	    -14.60412180	      0.00000000	      0.00000000	      0.00000000	      0.00000000	      0.00000000
      6.44000000	     53.71983636	      4.62025363	     -4.19262547	      1.28681856	      1.04404840	     -0.28853484	     22.80577505	     -8.81475717	      4.91579510	    -61.15019975	    -24.25545217	      0.00000000	      0.00000000	     17.28337515	    -10.90314328	     -5.73323681	    -62.86693458	    -14.55541736	      0.00000000	      0.00000000	      0.00000000	      0.00000000	      0.00000000
      6.45000000	     53.71156846	      4.65730846	     -4.18948556	      1.28685587	      1.04405122	     -0.28858989	     22.88649102	     -9.06117775	      5.11708775	    -62.72833324	    -24.51687593	      0.00000000	      0.00000000	     17.28986651	    -10.84221540	     -5.74584086	    -62.85935302	    -14.48938575	      0.00000000	      0.00000000	      0.00000000	      0.00000000	      0.00000000
      6.46000000	     53.70992498	      4.69179018	     -4.19878817	      1.28684851	      1.04402566	     -0.28862054	     22.97741421	     -9.30429481	      5.30956896	    -64.30797012	    -24.75594740	      0.00000000	      0.00000000	     17.28738337	    -10.77907811	     -5.76212030	    -62.85012174	    -14.41268446	      0.00000000	      0.00000000	      0.00000000	      0.00000000	      0.00000000
      6.47000000	     53.71845603	      4.72464580	     -4.21967345	      1.28684818	      1.04394039	     -0.28871900	     23.07491298	     -9.53340492	      5.50003887	    -65.88087220	    -24.96702820	      0.00000000	      0.00000000	     17.27659953	    -10.71798382	     -5.78035251	    -62.84305471	    -14.33622064	      0.00000000	      0.00000000	      0.00000000	      0.00000000	      0.00000000
      6.48000000	     53.73777264	      4.75361991	     -4.24428634	      1.28689157	      1.04381630	     -0.28891377	     23.16867329	     -9.74340576	      5.70891082	    -67.44228641	    -25.14590934	      0.00000000	      0.00000000	     17.26005012	    -10.66680372	     -5.79605053	    -62.84384408	    -14.27283885	      0.00000000	      0.00000000	      0.00000000	      0.00000000	      0.00000000
      6.49000000	     53.76549810	      4.77102803	     -4.26174554	      1.28691460	      1.04374119	     -0.28904235	     23.24536630	     -9.93769849	      5.96147957	    -68.99014497	    -25.29017805	      0.00000000	      0.00000000	     17.24053192	    -10.63384917	     -5.80404503	    -62.85794688	    -14.23371681	      0.00000000	      0.00000000	      0.00000000	      0.00000000	      0.00000000
      6.50000000	     53.80025141	      4.77243307	     -4.26591507	      1.28686360	      1.04375912	     -0.28897849	     23.29665560	    -10.11995412	      6.26962727	    -70.52170155	    -25.39952731	      0.00000000	      0.00000000	     17.21850122	    -10.62228192	     -5.80192981	    -62.88780136	    -14.22455413	      0.00000000	      0.00000000	      0.00000000	      0.00000000	      0.00000000
      6.51000000	     53.84504975	      4.76433408	     -4.25978215	      1.28681230	      1.04379785	     -0.28886218	     23.32495351	    -10.28654109	      6.62080190	    -72.03093022	    -25.47613952	      0.00000000	      0.00000000	     17.19075492	    -10.62732985	     -5.79183945	    -62.93126452	    -14.24345669	      0.00000000	      0.00000000	      0.00000000	      0.00000000	      0.00000000
      6.52000000	     53.90459909	      4.75615531	     -4.25107128	      1.28683132	      1.04378941	     -0.28885075	     23.34056204	    -10.43348937	      6.98823903	    -73.50970214	    -25.52491223	      0.00000000	      0.00000000	     17.15212786	    -10.63956763	     -5.77866488	    -62.98269264	    -14.28184597	      0.00000000	      0.00000000	      0.00000000	      0.00000000	      0.00000000
      6.53000000	     53.98001259	      4.75085385	     -4.24531473	      1.28687810	      1.04375412	     -0.28889861	     23.35362456	    -10.56556360	      7.34886547	    -74.94976691	    -25.55260500	      0.00000000	      0.00000000	     17.09874804	    -10.65076115	     -5.76665960	    -63.03556552	    -14.32767696	      0.00000000	      0.00000000	      0.00000000	      0.00000000	      0.00000000
      6.54000000	     54.06748230	      4.74719123	     -4.24350701	      1.28689071	      1.04373187	     -0.28890708	     23.36903679	    -10.69398025	      7.69111236	    -76.34226181	    -25.56590228	      0.00000000	      0.00000000	     17.03031093	    -10.65679885	     -5.75754421	    -63.08488212	    -14.36919575	      0.00000000	      0.00000000	      0.00000000	      0.00000000	      0.00000000
      6.55000000	     54.16093019	      4.74527269	     -4.24370837	      1.28687380	      1.04372647	     -0.28887026	     23.38688224	    -10.82847227	      8.01262260	    -77.67634698	    -25.56961047	      0.00000000	      0.00000000	     16.95021883	    -10.65668404	     -5.75085824	    -63.12848164	    -14.39787839	      0.00000000	      0.00000000	      0.00000000	      0.00000000	      0.00000000
      6.56000000	     54.25484090	      4.74755764	     -4.24345902	      1.28686686	      1.04372223	     -0.28883995	     23.40528933	    -10.97232424	      8.31516881	    -78.93960377	    -25.56595868	      0.00000000	      0.00000000	     16.86393667	    -10.65040490	     -5.74525592	    -63.16696065	    -14.40988870	      0.00000000	      0.00000000	      0.00000000	      0.00000000	      0.00000000
      6.57000000	     54.34527639	      4.75633977	     -4.24123277	      1.28689204	      1.04371188	     -0.28884537	     23.42234247	    -11.12238701	      8.60142087	    -80.12033799	    -25.55505334	      0.00000000	      0.00000000	     16.77697581	    -10.63816588	     -5.73944711	    -63.20238446	    -14.40601792	      0.00000000	      0.00000000	      0.00000000	      0.00000000	      0.00000000
      6.58000000	     54.42972344	      4.77125098	     -4.23679100	      1.28694308	      1.04370097	     -0.28887302	     23.43647172	    -11.27189782	      8.87410040	    -81.20990065	    -25.53596934	      0.00000000	      0.00000000	     16.69365860	    -10.62107036	     -5.73249304	    -63.23663953	    -14.39049968	      0.00000000	      0.00000000	      0.00000000	      0.00000000	      0.00000000
      6.59000000	     54.50701389	      4.78899764	     -4.23102199	      1.28699597	      1.04369650	     -0.28889719	     23.44661887	    -11.41331228	      9.13581333	    -82.20323260	    -25.50791553	      0.00000000	      0.00000000	     16.61666067	    -10.60184278	     -5.72381117	    -63.27048134	    -14.36928578	      0.00000000	      0.00000000	      0.00000000	      0.00000000	      0.00000000
      6.60000000	     54.57736678	      4.80504298	     -4.22551343	      1.28703233	      1.04370080	     -0.28890760	     23.45273745	    -11.54005012	      9.38847904	    -83.09771791	    -25.47113568	      0.00000000	      0.00000000	     16.54690678	    -10.58445652	     -5.71323979	    -63.30367986	    -14.34833211	      0.00000000	      0.00000000	      0.00000000	      0.00000000	      0.00000000
      6.61000000	     54.64165955	      4.81561314	     -4.22204143	      1.28704982	      1.04371108	     -0.28890772	     23.45573318	    -11.64751273	      9.63261405	    -83.89178230	    -25.42737719	      0.00000000	      0.00000000	     16.48381753	    -10.57284727	     -5.70114487	    -63.33572463	    -14.33227003	      0.00000000	      0.00000000	      0.00000000	      0.00000000	      0.00000000
      6.62000000	     54.70036765	      4.81906048	     -4.22211942	      1.28705236	      1.04372030	     -0.28890254	     23.45668350	    -11.73349014	      9.86692039	    -84.58398484	    -25.37980479	      0.00000000	      0.00000000	     16.42612245	    -10.56962254	     -5.68834808	    -63.36623990	    -14.32365354	      0.00000000	      0.00000000	      0.00000000	      0.00000000	      0.00000000
      6.63000000	     54.75329506	      4.81607543	     -4.22645133	      1.28704668	      1.04372390	     -0.28889303	     23.45619802	    -11.79802658	     10.08851378	    -85.17252129	    -25.33241350	      0.00000000	      0.00000000	     16.37301746	    -10.57538170	     -5.67583208	    -63.39480724	    -14.32281502	      0.00000000	      0.00000000	      0.00000000	      0.00000000	      0.00000000
